<?xml version="1.0" standalone="no"?>
<!DOCTYPE svg PUBLIC "-//W3C//DTD SVG 1.1//EN" "http://www.w3.org/Graphics/SVG/1.1/DTD/svg11.dtd" >
<!--
2013-9-30: Created.
-->
<svg>
<metadata>
Created by iconfont
</metadata>
<defs>

<font id="iconfont" horiz-adv-x="1024" >
  <font-face
    font-family="iconfont"
    font-weight="500"
    font-stretch="normal"
    units-per-em="1024"
    ascent="896"
    descent="-128"
  />
    <missing-glyph />
    
    <glyph glyph-name="xiaji_line" unicode="&#59932;" d="M336 799c44.183 0 80-35.817 80-80v-140c0-44.183-35.817-80-80-80h-46.001v-59L630 440.001V443c0 44.183 35.817 80 80 80h138c44.183 0 80-35.817 80-80v-78c0-44.183-35.817-80-80-80H710c-44.183 0-80 35.817-80 80v3.001L289.999 368 290 158.16c0-24.058 19.307-43.606 43.272-43.995l0.728-0.006 296 0.001V126c0 44.183 35.817 80 80 80h138c44.183 0 80-35.817 80-80v-78c0-44.183-35.817-80-80-80H710c-42.218 0-76.799 32.703-79.79 74.16H334c-63.424 0-114.96 50.9-115.984 114.081L218 158.16 217.999 499H176c-44.183 0-80 35.817-80 80V719c0 44.183 35.817 80 80 80h160z m512-665H710a8 8 0 0 1-7.996-7.75L702 126v-78a8 8 0 0 1 7.75-7.996l0.25-0.004h138a8 8 0 0 1 7.996 7.75L856 48v78a8 8 0 0 1-7.75 7.996L848 134z m0 317H710a8 8 0 0 1-7.996-7.75L702 443v-78a8 8 0 0 1 7.75-7.996l0.25-0.004h138a8 8 0 0 1 7.996 7.75L856 365v78a8 8 0 0 1-7.75 7.996L848 451zM336 727H176a8 8 0 0 1-7.996-7.75L168 719v-140a8 8 0 0 1 7.75-7.996l0.25-0.004h160a8 8 0 0 1 7.996 7.75L344 579V719a8 8 0 0 1-7.75 7.996L336 727z"  horiz-adv-x="1024" />

    
    <glyph glyph-name="gengduo" unicode="&#58884;" d="M94.33333344 665.45454563h835.33333312c26.43636375 0 47.79393938 20.848485 47.79393938 46.54545468 0 25.68484875-21.34545469 46.54545469-47.79393938 46.54545469H94.33333344C67.94545437 758.545455 46.53939406 737.69697 46.53939406 712.00000031s21.40606031-46.54545469 47.79393938-46.54545469z m835.32121218-232.7272725H94.33333344C67.88484875 432.72727312 46.53939406 411.87878812 46.53939406 386.18181844s21.34545469-46.54545469 47.79393938-46.54545469h835.33333312c26.43636375 0 47.79393938 20.848485 47.79393938 46.54545469-0.01212094 25.69696969-21.49090875 46.54545469-47.80606031 46.54545468z m0-329.66060625H94.33333344c-26.37575719 0-47.79393938-20.848485-47.79393938-46.54545469s21.40606031-46.54545469 47.79393938-46.54545469h835.33333312c26.43636375 0 47.79393938 20.848485 47.79393938 46.54545469-0.01212094 25.68484875-21.35757563 46.54545469-47.80606031 46.54545469z m0 0"  horiz-adv-x="1024" />

    
    <glyph glyph-name="shaixuan" unicode="&#58891;" d="M36.8 792l345.5232-425.3184v-319.0224l239.304-106.296h0.0048v425.3184L993.8 792H36.8z m544.7904-390.2784l-13.1808-15.0912v-363.4992l-132.8688 59.0688V385.5744l-11.9088 14.6592-275.1792 338.6256h728.1264l-294.9888-337.1376z"  horiz-adv-x="1025" />

    
    <glyph glyph-name="shouxie_line" unicode="&#59929;" d="M924 24.56899999999996c19.882 0 36-16.118 36-36 0-19.883-16.118-36-36-36H100c-19.882 0-36 16.117-36 36 0 19.882 16.118 36 36 36h824zM448.341 649.94a15.966 15.966 0 0 0 10.973-4.686l169.372-169.373c6.249-6.248 6.249-16.379 0-22.627l-353.94-353.941a64 64 0 0 0-45.256-18.745H64v165.49a64 64 0 0 0 18.745 45.255l353.941 353.94a15.966 15.966 0 0 0 10.973 4.687h0.682z m-5.998-100.852L140.685 247.43200000000002A16 16 0 0 1 136 236.11800000000005v-83.55h83.55a16 16 0 0 1 11.313 4.687L532.52 458.912a8 8 0 0 1 0.195 11.111l-0.195 0.202-78.863 78.864a8 8 0 0 1-11.314 0zM640 815.4300000000001l1.228-0.009c20.063-0.306 40.032-8.113 55.34-23.422l78.863-78.863c31.242-31.242 31.242-81.895 0-113.137l-84.226-84.227c-6.162-6.162-16.098-6.247-22.365-0.257l-0.263 0.257-169.37 169.376c-6.248 6.248-6.247 16.379 0 22.627L583.432 792c15.309 15.309 35.278 23.116 55.34 23.422l1.229 0.01z m-5.248-73.96l-0.207-0.188-0.202-0.195-38.97-38.969a8 8 0 0 1 0-11.313l78.861-78.865a8 8 0 0 1 11.314 0l38.972 38.97a8 8 0 0 1 0.195 11.112l-0.195 0.202-78.863 78.863a8 8 0 0 1-10.905 0.382z"  horiz-adv-x="1024" />

    
    <glyph glyph-name="fuzhi_line" unicode="&#59930;" d="M880 804c44.183 0 80-35.817 80-80v-512c0-44.183-35.817-80-80-80H736v-88c0-44.183-35.817-80-80-80H144c-44.183 0-80 35.817-80 80V556c0 44.183 35.817 80 80 80h144v88c0 44.183 35.817 80 80 80h512zM288 564H144a8.006 8.006 0 0 1-8-7.75V44a8.006 8.006 0 0 1 7.75-8H656a8.006 8.006 0 0 1 8 7.75V132H368c-44.183 0-80 35.817-80 80V564z m592.25 168H368a8.006 8.006 0 0 1-8-7.75V212a8.006 8.006 0 0 1 7.75-8H880a8.006 8.006 0 0 1 8 7.75V724a8.006 8.006 0 0 1-7.75 8z"  horiz-adv-x="1024" />

    
    <glyph glyph-name="wenjianjia_dakai_line" unicode="&#59931;" d="M102.758 0c-44.183 0-80 35.817-80 80a80 80 0 0 0 0.395 7.943L23.154 688c0 44.183 35.817 80 80 80h206.863a80 80 0 0 0 56.569-23.431l95.195-95.196A32 32 0 0 1 484.41 640h354.745c44.183 0 80-35.817 80-80v-112h0.146c44.183 0 80-35.817 80-80a80 80 0 0 0-2.987-21.66l-77.825-276.71c-5.084-39.284-38.665-69.63-79.334-69.63H102.758zM929.45 376H177.463l-82.31-294.872V80a8 8 0 0 1 8.001-8h741.44l84.857 304zM300.076 696H103.154a8 8 0 0 1-8-8v-339.552l11.592 41.212c9.704 34.502 41.17 58.34 77.012 58.34h663.396V560a8 8 0 0 1-8 8H467.84a64 64 0 0 0-45.254 18.745l-99.882 99.882A32 32 0 0 1 300.076 696z"  horiz-adv-x="1024" />

    
    <glyph glyph-name="yidong" unicode="&#58992;" d="M63.946 319.946h896L674.838 35.053999999999974l-56.568 56.568 147.903 148.324H63.946v80z m114.152 128.26l-0.152-0.152h-114l285.108 284.892 56.568-56.568-147.75-148.172h702.074v-80H178.098z"  horiz-adv-x="1024" />

    
    <glyph glyph-name="duoxuan" unicode="&#59173;" d="M102.4 896h819.2a102.4 102.4 0 0 0 102.4-102.4v-819.2a102.4 102.4 0 0 0-102.4-102.4H102.4a102.4 102.4 0 0 0-102.4 102.4V793.6a102.4 102.4 0 0 0 102.4 102.4z m0-102.4v-819.2h819.2V793.6H102.4zM222.391325 362.786247m36.203867 36.203867l0 0q36.203867 36.203867 72.407735 0l144.815469-144.815469q36.203867-36.203867 0-72.407734l0 0q-36.203867-36.203867-72.407735 0l-144.815469 144.815469q-36.203867 36.203867 0 72.407734ZM367.206794 217.970778m36.203867 36.203867l289.630938 289.630938q36.203867 36.203867 72.407734 0l0 0q36.203867-36.203867 0-72.407735l-289.630937-289.630937q-36.203867-36.203867-72.407735 0l0 0q-36.203867 36.203867 0 72.407734Z"  horiz-adv-x="1024" />

    
    <glyph glyph-name="shandian_line" unicode="&#59735;" d="M826.185 896H371.824L113.892 362.648l219.158-0.135L96-125.827l857.824 726.048h-334.41L826.185 896zM421.998 816h250.65L465.882 520.221h269.592L333.297 179.827l127.476 262.606-219.367 0.136L421.998 816z"  horiz-adv-x="1024" />

    
    <glyph glyph-name="qiehuan" unicode="&#59196;" d="M913 319.51199999999994h112.197L871.138 126.90899999999999 717.079 319.51199999999994H833V704H129v80h784v-464.488zM113 448.016H0L154.059 640.62l154.058-192.603H193V64h704v-80H113V448.016z"  horiz-adv-x="1025" />

    
    <glyph glyph-name="chehui" unicode="&#59298;" d="M373.22549689 526.99987604l212.2628513-212.63567834c12.75896961-12.75896961 12.42756741-33.14018016-0.70422801-45.56774757a33.80298335 33.80298335 0 0 0-46.85192912 0.70422923l-265.12143884 265.53568946a31.56602122 31.56602122 0 0 0 0 44.90494437l249.50412873 249.95980539a33.80298335 33.80298335 0 0 0 46.89335394 0.66280319c13.13179663-12.38614258 13.4217728-32.76735314 0.70422923-45.56774636L376.33238873 591.12612386h262.84305066c181.44248415 0 328.50203139-148.38515485 328.50203262-331.40179794s-147.05954725-331.40179794-328.50203262-331.40179793H88.09567573A31.89742341 31.89742341 0 0 0 56.32252799-39.61434810000003a31.89742341 31.89742341 0 0 0 31.77314774 32.06312392H639.17543939c146.31389321 0 264.91431231 119.67747413 264.91431231 267.2755501s-118.60041789 267.27555011-264.91431231 267.27555012h-265.9499425z"  horiz-adv-x="1024" />

    
    <glyph glyph-name="101" unicode="&#58883;" d="M512-128C229.2-128 0 101.20000000000005 0 384S229.2 896 512 896s512-229.2 512-512-229.2-512-512-512z m0 128c212.1 0 384 171.9 384 384S724.1 768 512 768 128 596.1 128 384s171.9-384 384-384z m0 80c-167.9 0-304 136.1-304 304s136.1 304 304 304 304-136.1 304-304-136.1-304-304-304z"  horiz-adv-x="1024" />

    
    <glyph glyph-name="weibiaoti103" unicode="&#59191;" d="M512-41.25c234.871875 0 425.25 190.378125 425.25 425.25S746.871875 809.25 512 809.25 86.75 618.871875 86.75 384s190.378125-425.25 425.25-425.25z m15.75 441V699h-78.75v-378h315v78.75H527.75z m-15.75-519.75C233.61875-120 8 105.61874999999998 8 384S233.61875 888 512 888s504-225.61875 504-504-225.61875-504-504-504z"  horiz-adv-x="1024" />

    
    <glyph glyph-name="shangchuan" unicode="&#58993;" d="M511.741935 475.354838L511.741935 475.354838 512 475.354838 512.516129 475.354838 511.741935 475.354838ZM495.483871 468.129032L306.32258 279.483871C297.032258 270.45161299999995 297.032258 255.48387200000002 306.32258 245.93548199999998 315.354838 236.90322600000002 330.580645 236.90322600000002 339.870968 245.93548199999998L488.258065 394.32258 488.258065 75.13363800000002C488.258065 62.230413 498.83871 51.13363800000002 512 51.13363800000002 525.16129 51.13363800000002 535.741935 62.230413 535.741935 75.13363800000002L535.741935 394.32258 684.387098 245.93548199999998C693.677421 236.90322600000002 708.645158 236.90322600000002 718.193549 245.93548199999998 726.967744 255.48387200000002 726.967744 270.45161299999995 718.193549 279.483871L528.516129 468.129032 527.483871 469.16129 526.451613 470.193548C525.16129 471.483871 524.129032 472 523.612903 472.774193L522.32258 472.774193C520.774193 474.064516 519.741935 474.32258 518.451613 474.32258L516.129032 474.83871 514.32258 475.354838 512.516129 475.354838 509.935484 475.354838 507.870968 474.83871 505.806452 474.32258C504.516129 474.32258 503.225807 474.064516 502.193548 473.290323L500.903226 472.774193C499.870968 472 498.83871 471.483871 498.32258 470.967742L496.516129 469.67742 495.483871 468.129032ZM820.387098 129.54838400000006C854.709677 129.80645100000004 886.451616 143.74193300000002 908.387098 166.19354899999996 931.096774 189.419354 945.032256 220.38709800000004 945.032256 255.48387200000002 945.032256 286.45161299999995 934.451616 314.32258 916.12903 336.77419299999997 897.548384 358.70967700000006 871.225805 374.19354799999996 841.032256 379.354838 821.677421 383.22580700000003 808 399.483871 808 418.32258L808 418.580645C808 493.16129 777.806451 561.290323 728.774195 610.064516 679.741933 659.096774 611.870968 689.548387 537.548387 689.548387 482.064516 689.548387 430.709677 673.032258 388.129032 645.419355 344 615.741935 309.16129 574.709677 288 525.419355 281.806452 510.709677 267.870968 501.67742 252.645162 501.16129 204.129032 498.580645 161.032258 477.16129 129.290323 443.354838 97.806452 410.580645 78.967742 365.419355 78.967742 315.87096799999995 78.967742 264.258065 99.612903 217.54838400000006 133.16129 184L133.67742 184C167.225807 150.19354899999996 213.67742 129.54838400000006 264.774193 129.54838400000006L281.290323 129.54838400000006 282.32258 129.54838400000006 382.967742 129.54838400000006 394.83871 129.54838400000006C416.774193 129.54838400000006 434.580645 111.48387200000002 434.580645 90.06451800000002 434.580645 68.64515800000004 416.774193 50.580646 394.83871 50.580646L382.967742 50.580646 282.32258 50.580646 281.290323 50.580646 264.774193 50.580646C191.741935 50.580646 125.419355 80 77.419355 128.77419499999996 29.677419 176.51612799999998 0 242.838707 0 315.87096799999995 0 385.806452 27.354839 450.32258 72.258065 497.806452 112 539.354838 165.67742 568.258065 225.548387 577.806452 253.419355 632 294.709677 677.16129 345.032258 710.193548 400.258065 746.83871 466.32258 768 537.548387 768 633.548387 768 721.032256 729.032258 784.516128 665.806452 841.032256 609.032258 878.451616 533.16129 885.935482 449.032258 921.032256 437.419355 952.258067 414.967742 975.741933 387.096774 1005.935482 351.483871 1024 305.29032299999994 1024 255.48387200000002 1024 198.70967700000006 1001.032256 147.61290199999996 964.12903 110.45161599999994L963.87097 110.45161599999994C931.612902 77.93548199999998 888.258067 56.77419499999996 840 51.35484199999996 837.161293 51.09677399999998 834.064518 50.580646 830.967744 50.580646L820.645158 50.580646 819.354842 50.580646 644.12903 50.580646 642.580646 50.580646C620.903226 50.580646 603.354838 68.64515800000004 603.354838 90.06451800000002 603.354838 111.48387200000002 620.903226 129.54838400000006 642.580646 129.54838400000006L644.12903 129.54838400000006 820.387098 129.54838400000006Z"  horiz-adv-x="1024" />

    
    <glyph glyph-name="xinjianwenjianjia" unicode="&#58966;" d="M492.16 682.666667H853.333333a128 128 0 0 0 128-128v-469.333334a128 128 0 0 0-128-128H170.666667a128 128 0 0 0-128 128V682.666667a128 128 0 0 0 128 128h213.333333a42.666667 42.666667 0 0 0 35.498667-18.986667L492.16 682.666667z m-130.986667 42.666666H170.666667a42.666667 42.666667 0 0 1-42.666667-42.666666v-597.333334a42.666667 42.666667 0 0 1 42.666667-42.666666h682.666666a42.666667 42.666667 0 0 1 42.666667 42.666666V554.666667a42.666667 42.666667 0 0 1-42.666667 42.666666h-384a42.666667 42.666667 0 0 0-35.498666 18.986667L361.173333 725.333333zM512 475.008a42.666667 42.666667 0 0 0 42.666667-42.666667v-85.333333h85.333333a42.666667 42.666667 0 0 0 42.368-37.674667l0.298667-4.992a42.666667 42.666667 0 0 0-42.666667-42.666666h-85.333333v-85.333334a42.666667 42.666667 0 0 0-37.674667-42.368l-4.992-0.298666a42.666667 42.666667 0 0 0-42.666667 42.666666v85.333334H384a42.666667 42.666667 0 0 0-42.368 37.674666L341.333333 304.34133299999996a42.666667 42.666667 0 0 0 42.666667 42.666667h85.333333v85.333333a42.666667 42.666667 0 0 0 37.674667 42.368L512 475.008z"  horiz-adv-x="1024" />

    
    <glyph glyph-name="yishanchu" unicode="&#59022;" d="M400 832h304v-143h224v-80h-78v-674H175V609H96v80h224V832h80z m0-80v-63h224v63H400z m370-143H255v-594h515V609z m-304-97v-384.9h-80V512h80z m174 0v-384.9h-80V512h80z"  horiz-adv-x="1024" />

    
    <glyph glyph-name="paixu" unicode="&#59058;" d="M110.125 805.875h1073.86363613v-76.70454538H110.125zM110.125 422.3522731h1073.86363613v-76.7045462H110.125zM110.125 38.82954538000001h1073.86363613v-76.70454538H110.125z"  horiz-adv-x="1303" />

    
    <glyph glyph-name="paixu-copy" unicode="&#59787;" d="M110.125 805.875h1073.86363613v-76.70454538H110.125zM110.125 422.3522731h1073.86363613v-76.7045462H110.125zM110.125 38.82954538000001h1073.86363613v-76.70454538H110.125z"  horiz-adv-x="1303" />

    
    <glyph glyph-name="yanjingbi" unicode="&#59217;" d="M824.757 432.5c-29.148-14.904-60.2-27.475-92.817-37.653L784.14 212.80999999999995l-76.901-22.05-53.02 184.903C621.218 369.53 587.05 365.58799999999997 552 363.88699999999994V160h-80V363.876c-34.448 1.663-68.045 5.49-100.518 11.433l-56.467-184.696-76.504 23.39 55.12 180.287c-33.077 10.216-64.557 22.885-94.088 37.944l-94.983-146.26-67.094 43.57 93.762 144.38C81.224 510.174 39.428 555.01 8.316 608h93.224c72.208-119.517 228.862-162.922 410.483-162.922S850.3 488.483 922.506 608h92.958c-31.014-52.822-72.646-97.544-122.44-133.734l93.982-144.722-67.093-43.57L824.757 432.5z"  horiz-adv-x="1024" />

    
    <glyph glyph-name="yanjingzheng" unicode="&#59218;" d="M929.567 383.91999999999996C860.908 535.36 699.81 626.8430000000001 512.023 626.8430000000001c-187.788 0-348.885-91.483-417.544-242.921H0C90.315 576.0129999999999 285.572 709 511.89 709c226.318 0 421.575-132.987 511.89-325.08h-94.213zM929.567 384C860.908 232.55999999999995 699.81 141.07799999999997 512.023 141.07799999999997c-187.788 0-348.885 91.483-417.544 242.922H0c90.315-192.092 285.572-325.08 511.89-325.08 226.318 0 421.575 132.988 511.89 325.08h-94.213zM512.5 193C406.737 193 321 278.73699999999997 321 384.5S406.737 576 512.5 576 704 490.263 704 384.5 618.263 193 512.5 193z"  horiz-adv-x="1024" />

    
    <glyph glyph-name="xia" unicode="&#59465;" d="M512.579 177.36300000000006L103.94 586l-56.56799999-56.569L512.45 64.35299999999995l0.12799999 0.127 0.12700001-0.12700001L976 527.6469999999999l-56.569 56.569L512.58 177.36300000000006z"  horiz-adv-x="1024" />

    
    <glyph glyph-name="fangdajing-copy" unicode="&#59786;" d="M846.8 113.76999999999998l140.663-140.664-56.569-56.569L790.92 56.513000000000034C709.635-13.601999999999975 603.769-56 488-56 231.74-56 24 151.74 24 408S231.74 872 488 872s464-207.74 464-464c0-111.687-39.46-214.158-105.2-294.23zM488 24c212.077 0 384 171.923 384 384S700.077 792 488 792 104 620.077 104 408s171.923-384 384-384z"  horiz-adv-x="1024" />

    
    <glyph glyph-name="fangdajing" unicode="&#59342;" d="M846.8 113.76999999999998l140.663-140.664-56.569-56.569L790.92 56.513000000000034C709.635-13.601999999999975 603.769-56 488-56 231.74-56 24 151.74 24 408S231.74 872 488 872s464-207.74 464-464c0-111.687-39.46-214.158-105.2-294.23zM488 24c212.077 0 384 171.923 384 384S700.077 792 488 792 104 620.077 104 408s171.923-384 384-384z"  horiz-adv-x="1024" />

    
    <glyph glyph-name="wenjianjia_line" unicode="&#59784;" d="M384 832l128-128h512v-768H0V832h384z m559.999-416h-864L80 16h864l-0.001 400zM350.863 752H80l-0.001-256h864L944 624H478.863l-128 128z"  horiz-adv-x="1024" />

    
    <glyph glyph-name="wenjianjia_fill" unicode="&#59785;" d="M32 0V576h960v-576H32z m0 791h423.111L576 656H32V791z"  horiz-adv-x="1024" />

    
    <glyph glyph-name="Shape" unicode="&#59251;" d="M160 480c53.02 0 96-42.98 96-96s-42.98-96-96-96-96 42.98-96 96 42.98 96 96 96z m352 0c53.02 0 96-42.98 96-96s-42.98-96-96-96-96 42.98-96 96 42.98 96 96 96z m352 0c53.02 0 96-42.98 96-96s-42.98-96-96-96-96 42.98-96 96 42.98 96 96 96z"  horiz-adv-x="1024" />

    
    <glyph glyph-name="wenjianjia" unicode="&#59148;" d="M1 832h421.8L487 722H1zM1 722h1024v-785H1z"  horiz-adv-x="1025" />

    
    <glyph glyph-name="yuan_you_line" unicode="&#59778;" d="M512 896c282.77 0 512-229.23 512-512s-229.23-512-512-512S0 101.23000000000002 0 384 229.23 896 512 896z m0-80C273.413 816 80 622.587 80 384s193.413-432 432-432 432 193.413 432 432S750.587 816 512 816z m14.008-176.02L781.98 384.008l-0.008-0.008 0.008-0.008L526.008 128.01999999999998l-56.569 56.568 160.35 160.35-387.809 0.001v80h385.931L469.44 583.412l56.569 56.568z"  horiz-adv-x="1024" />

    
    <glyph glyph-name="fangzi_line" unicode="&#59779;" d="M511.757 896l56.568-56.569-0.094-0.093 327.337-327.337 0.432-0.001-0.001-0.43 127.326-127.327-56.568-56.568-70.758 70.757L896-64H611V345H413v-409H128l-0.001 463.106-71.43-71.431L0 384.243 455.094 839.338l-0.094 0.093L511.569 896l0.093-0.094 0.095 0.094z m-0.095-113.231L207.999 479.106 208 16l123.999 0.001L332 430h360l-0.001-413.999L816 16l-0.001 462.432-304.337 304.337z"  horiz-adv-x="1024" />

    
    <glyph glyph-name="wenjianwancheng_line" unicode="&#59780;" d="M896 832l-0.001-313.999h-80L816 752H144v-736h325v-80l426.999 0.001 0.001-0.001H64V832h832zM772 440c139.216 0 252-112.971 252-252.053C1024 48.865999999999985 911.216-64 772-64S520 48.971000000000004 520 188.053C520 327.134 632.784 440 772 440z m0.5-73C673.42 367 593 286.58000000000004 593 187.5S673.42 8 772.5 8 952 88.41999999999996 952 187.5 871.689 367 772.5 367z m70.376-86.307l56.569-56.569-147.346-150.667-10.253 10.254-0.354-0.355L634 188.43100000000004 690.569 245l60.022-58.672 92.285 94.365zM434.086 276v-80h-197v80h197zM509 458v-80H237.086v80H509z m213.086 182v-80h-485v80h485z"  horiz-adv-x="1024" />

    
    <glyph glyph-name="fangzi_fill" unicode="&#59781;" d="M511.757 896l56.568-56.569-0.094-0.093 327.337-327.337 0.432-0.001-0.001-0.43 127.326-127.327-56.568-56.568-70.758 70.757L896-64H640V320H384v-384H128l-0.001 463.106-71.43-71.431L0 384.243 455.094 839.338l-0.094 0.093L511.569 896l0.093-0.094 0.095 0.094z"  horiz-adv-x="1024" />

    
    <glyph glyph-name="wenjianwancheng_fill" unicode="&#59782;" d="M896 831l0.003-399.389C865.975 442.225 833.663 448 800 448c-159.058 0-288-128.942-288-288 0-90.474 41.72-171.205 106.97-224.003L64-64V831h832z m-96-447c123.712 0 224-100.288 224-224S923.712-64 800-64 576 36.28800000000001 576 160s100.288 224 224 224z m106.394-110L765.188 132.79499999999996l-78.22 77.63L640 163.45799999999997l125.195-124.251 0.122 0.122 0.171-0.17L953.362 227.02999999999997 906.394 274zM448 400H192v-80h256v80z m320 240H192v-80h576v80z"  horiz-adv-x="1024" />

    
    <glyph glyph-name="yuan_you_fill" unicode="&#59783;" d="M512 896c282.77 0 512-229.23 512-512s-229.23-512-512-512S0 101.23000000000002 0 384 229.23 896 512 896z m14.008-256.02l-56.569-56.568 158.472-158.473h-385.93v-80h387.808l-160.35-160.35 56.569-56.57L781.98 383.99300000000005l-0.008 0.008 0.008 0.008L526.008 639.98z"  horiz-adv-x="1024" />

    
    <glyph glyph-name="gongzuobianji" unicode="&#59172;" d="M640 832v-80H144v-736h736V512h80v-576H64V832h576z m263.895 0l56.569-56.569-522.895-522.895L381 309.105 903.895 832z"  horiz-adv-x="1024" />

    
    <glyph glyph-name="guanbi" unicode="&#59057;" d="M568.891 383.677l333.755-333.754-56.569-56.569L512.323 327.11 178.569-6.645999999999958 122 49.923l333.754 333.754L122 717.431 178.569 774l333.754-333.754L846.077 774l56.569-56.569L568.89 383.677z"  horiz-adv-x="1024" />

    
    <glyph glyph-name="jinggao" unicode="&#59165;" d="M512-128c-282.8 0-512 229.2-512 512s229.2 512 512 512 512-229.2 512-512-229.2-512-512-512z m55 309c0 30.4-24.6 55-55 55s-55-24.6-55-55 24.6-55 55-55 55 24.6 55 55z m-9.5 137.5v321h-90v-321h90z"  horiz-adv-x="1024" />

    
    <glyph glyph-name="sousuo" unicode="&#58949;" d="M512.34133333-3.1857777799999667c-242.80177778 0-440.20622222 197.51822222-440.20622222 440.20622223s197.40444445 440.32 440.20622222 440.32 440.20622222-197.51822222 440.20622222-440.32-197.40444445-440.20622222-440.20622222-440.20622223z m0 816.69688889c-207.53066667 0-376.49066667-168.96-376.49066666-376.49066666s168.96-376.49066667 376.49066666-376.49066667 376.49066667 168.96 376.49066667 376.49066667-168.96 376.49066667-376.49066667 376.49066666zM991.232-12.401777779999975c-11.49155555-13.19822222-31.744-14.67733333-44.94222222-3.18577777L781.65333333 127.08977777999996c-13.19822222 11.49155555-14.67733333 31.744-3.18577778 44.94222222 11.49155555 13.19822222 31.744 14.67733333 44.94222223 3.18577778l164.63644444-142.67733333c13.19822222-11.37777778 14.67733333-31.63022222 3.18577778-44.94222223z"  horiz-adv-x="1024" />

    
    <glyph glyph-name="music" unicode="&#59138;" d="M0 896h1024v-1024H0V896z m724.8-288l-281.6-33.6c-8-1.6-16-8-16-16v-264c-14.4 8-33.6 14.4-52.8 14.4-48 0-88-30.4-88-67.2 0-36.8 40-67.2 88-67.2 44.8 0 81.6 25.6 86.4 59.2 0 1.6 1.6 3.2 1.6 4.8V441.6l246.4 28.8v-144c-14.4 8-33.6 14.4-52.8 14.4-48 0-88-30.4-88-67.2S608 208 657.6 208c44.8 0 81.6 25.6 86.4 59.2 0 1.6 1.6 3.2 1.6 4.8V592c0 4.8-1.6 9.6-6.4 12.8-3.2 1.6-8 3.2-14.4 3.2z"  horiz-adv-x="1024" />

    
    <glyph glyph-name="Video" unicode="&#59145;" d="M0 896h1024v-1024H0V896z m641.6-492.8l-220.8 150.4c-9.6 6.4-24 8-35.2 1.6-11.2-6.4-17.6-17.6-17.6-28.8v-300.8c0-12.8 6.4-24 17.6-28.8 4.8-3.2 9.6-3.2 16-3.2s12.8 1.6 19.2 6.4l220.8 150.4c9.6 6.4 14.4 16 14.4 27.2 0 9.6-4.8 19.2-14.4 25.6z"  horiz-adv-x="1024" />

    
    <glyph glyph-name="Generic" unicode="&#59197;" d="M0 896h1024v-1024H0V896z m327.9-688h318.3c36.8 0 71.5 13.7 97.4 38.5 26 24.8 40.4 57.7 40.4 92.8 0 34.1-13.7 66.4-38.5 90.9-23 22.7-53.2 36.5-85.9 39.5-27.9 55.1-86.4 90.3-151.1 90.3-40.1 0-79-13.7-109.3-38.7-27.4-22.6-46.4-52.9-54.1-86.3-27.7-2.6-53.4-14.1-73.3-33.2-31.4-33.5-71.7-155.3 56.1-193.8z"  horiz-adv-x="1024" />

    
    <glyph glyph-name="zhengque" unicode="&#59257;" d="M1310.975 820.5l82.8-82.87499971L605.22499971-50.924999999999955l-0.9 0.9-0.52499971-0.52499971-522.74999971 522.74999971L163.99999971 555l440.70000029-440.70000029L1310.975 820.5z"  horiz-adv-x="1536" />

    
    <glyph glyph-name="bianji-fujian" unicode="&#58939;" d="M351.872-100.41600000000005a287.04 287.04 0 0 0-203.648 84.224c-112.32 112.32-112.32 295.04 0 407.264L555.488 798.4A222.496 222.496 0 0 0 713.888 864c59.84 0 116.064-23.296 158.4-65.6 87.296-87.36 87.296-229.44 0-316.8L464.96 74.30399999999997a160.192 160.192 0 0 0-226.272 0 158.976 158.976 0 0 0-46.88 113.12 159.04 159.04 0 0 0 46.88 113.152L600.736 662.624a32 32 0 0 0 45.248-45.248L283.968 255.36a95.488 95.488 0 0 1-28.16-67.904 96.096 96.096 0 0 1 163.904-67.872l407.328 407.296a160.192 160.192 0 0 1 0 226.272A158.976 158.976 0 0 1 713.888 800c-42.72 0-82.912-16.64-113.152-46.88L193.472 345.82399999999996a224.192 224.192 0 0 1 0-316.768c87.328-87.36 229.504-87.296 316.768 0l362.048 362.016a31.968 31.968 0 1 0 45.248-45.248L555.488-16.192000000000007a287.04 287.04 0 0 0-203.616-84.224"  horiz-adv-x="1024" />

    
    <glyph glyph-name="113" unicode="&#58895;" d="M903.392 324.79999999999995L571.168 324.79999999999995l0-332.192c0-29.088-23.552-52.608-52.608-52.608l-13.152 0c-29.088 0-52.608 23.552-52.608 52.608L452.8 324.79999999999995 120.608 324.79999999999995c-29.088 0-52.608 23.552-52.608 52.608l0 13.152c0 29.088 23.552 52.608 52.608 52.608L452.8 443.168 452.8 775.392c0 29.088 23.552 52.608 52.608 52.608l13.152 0c29.088 0 52.608-23.552 52.608-52.608L571.168 443.2l332.192 0c29.088 0 52.608-23.552 52.608-52.608l0-13.152C955.968 348.352 932.416 324.79999999999995 903.392 324.79999999999995z"  horiz-adv-x="1024" />

    
    <glyph glyph-name="105" unicode="&#58958;" d="M512-114.66700000000003c-278.381 0-504 225.62-504 504s225.619 504 504 504 504-225.618 504-504-225.619-504-504-504z m0 417.375c47.84 0 86.625 38.785 86.625 86.625S559.841 475.958 512 475.958s-86.625-38.784-86.625-86.625 38.784-86.625 86.625-86.625z m-263.813 0c47.841 0 86.625 38.785 86.625 86.625s-38.784 86.625-86.625 86.625-86.625-38.784-86.625-86.625 38.785-86.625 86.625-86.625z m528.61 0c47.84 0 86.625 38.785 86.625 86.625s-38.785 86.625-86.625 86.625-86.625-38.784-86.625-86.625 38.784-86.625 86.625-86.625z"  horiz-adv-x="1024" />

    
    <glyph glyph-name="104" unicode="&#58886;" d="M512 384m-512 0a512 512 0 1 1 1024 0 512 512 0 1 1-1024 0Z"  horiz-adv-x="1024" />

    
    <glyph glyph-name="zhikanweidu" unicode="&#59120;" d="M454.794 138.83000000000004l0.979-0.978 385.352 385.352-53.033 53.033-332.798-332.798L264.45 434.284l-53.033-53.033 242.898-242.899 0.479 0.478zM512-96C246.903-96 32 118.90300000000002 32 384S246.903 864 512 864s480-214.903 480-480-214.903-480-480-480z"  horiz-adv-x="1024" />

    
    <glyph glyph-name="word" unicode="&#59031;" d="M0 896h1024v-1024H0V896z m334.4-777.6c1.6-3.2 4.8-6.4 8-6.4h54.4c3.2 0 6.4 3.2 8 6.4l102.4 379.2L608 118.4c1.6-3.2 4.8-6.4 8-6.4H672c3.2 0 6.4 3.2 8 6.4l129.6 520V640c0 4.8-3.2 8-8 8h-70.4c-3.2 0-6.4-3.2-8-6.4L640 267.2l-102.4 374.4c-1.6 3.2-4.8 6.4-8 6.4h-46.4c-3.2 0-6.4-1.6-8-6.4l-104-374.4L288 641.6c-1.6 3.2-4.8 6.4-8 6.4h-70.4-1.6c-4.8-1.6-6.4-4.8-6.4-9.6l132.8-520z"  horiz-adv-x="1024" />

    
    <glyph glyph-name="Excel" unicode="&#59041;" d="M0 896h1024v-1024H0V896z m622.4-780.8c1.6-3.2 4.8-3.2 6.4-3.2h73.6c1.6 0 3.2 0 4.8 1.6 3.2 1.6 4.8 6.4 3.2 11.2l-156.8 262.4 147.2 248c0 1.6 1.6 3.2 1.6 4.8 0 4.8-3.2 8-8 8h-73.6c-3.2 0-4.8-1.6-6.4-3.2l-105.6-182.4-104 180.8c-1.6 3.2-4.8 4.8-6.4 4.8h-73.6c-1.6 0-3.2 0-4.8-1.6-3.2-1.6-4.8-6.4-3.2-11.2L464 387.2l-156.8-262.4c0-1.6-1.6-3.2-1.6-4.8 0-4.8 3.2-8 8-8H384c3.2 0 4.8 1.6 6.4 3.2l115.2 195.2 116.8-195.2z"  horiz-adv-x="1024" />

    
    <glyph glyph-name="HTML" unicode="&#59043;" d="M0 896h1024v-1024H0V896z m608-488l156.8-65.6-156.8-67.2c-8-3.2-12.8-9.6-12.8-17.6v-20.8c0-3.2 0-4.8 1.6-8 4.8-9.6 16-14.4 27.2-9.6l212.8 94.4c6.4 3.2 11.2 9.6 11.2 17.6V352c0 8-4.8 14.4-11.2 17.6l-212.8 96c-3.2 1.6-4.8 1.6-8 1.6-11.2 0-19.2-9.6-19.2-19.2v-20.8c-1.6-8 3.2-16 11.2-19.2z m-73.6 137.6L432 235.2c0-1.6-1.6-4.8-1.6-6.4 0-11.2 9.6-19.2 19.2-19.2h19.2c8 0 16 4.8 19.2 14.4L592 534.4c0 1.6 1.6 4.8 1.6 6.4 0 11.2-9.6 19.2-19.2 19.2h-19.2c-9.6 0-17.6-4.8-20.8-14.4z m-124.8-270.4l-156.8 67.2 156.8 65.6c8 3.2 12.8 9.6 12.8 19.2V448c0 3.2 0 4.8-1.6 8-4.8 9.6-16 14.4-27.2 9.6l-212.8-94.4c-8-3.2-11.2-9.6-11.2-17.6v-20.8c0-8 4.8-14.4 11.2-17.6l212.8-94.4c3.2-1.6 4.8-1.6 8-1.6 11.2 0 19.2 9.6 19.2 19.2V256c1.6 8-3.2 16-11.2 19.2z"  horiz-adv-x="1024" />

    
    <glyph glyph-name="image" unicode="&#59044;" d="M0 896h1024v-1024H0V896z m608-361.6c-1.6 4.8-4.8 9.6-9.6 9.6s-8-4.8-11.2-8L425.6 273.6l-44.8 76.8c-1.6 1.6-4.8 4.8-9.6 4.8s-6.4-1.6-9.6-4.8l-104-147.2c-1.6-1.6-1.6-6.4 0-11.2 1.6-4.8 6.4-6.4 9.6-6.4h473.6c4.8 0 6.4 1.6 9.6 4.8 1.6 4.8 1.6 6.4 0 11.2L608 534.4z m-251.2-110.4c46.4 0 84.8 36.8 84.8 83.2S403.2 592 356.8 592 272 556.8 272 510.4s38.4-86.4 84.8-86.4z"  horiz-adv-x="1024" />

    
    <glyph glyph-name="PDF" unicode="&#59050;" d="M0 896h1024v-1024H0V896z m481.6-459.2c19.2-41.6 43.2-75.2 70.4-97.6 4.8-4.8 11.2-9.6 19.2-14.4-40-8-94.4-20.8-152-43.2l-4.8-1.6c3.2 14.4 14.4 30.4 22.4 48 19.2 38.4 33.6 75.2 44.8 108.8z m296-174.4c8 8 12.8 19.2 12.8 30.4 1.6 9.6-1.6 17.6-4.8 25.6-12.8 20.8-48 32-104 32-19.2 0-38.4-1.6-59.2-3.2-14.4 8-27.2 17.6-40 27.2-28.8 24-54.4 65.6-73.6 116.8 0 1.6 1.6 3.2 1.6 6.4 14.4 60.8 28.8 134.4-1.6 164.8-8 8-17.6 11.2-27.2 11.2h-11.2c-17.6 0-32-17.6-36.8-35.2-17.6-60.8-6.4-94.4 9.6-148.8-11.2-40-25.6-86.4-49.6-134.4-16-30.4-30.4-59.2-43.2-81.6-17.6-8-32-16-40-22.4-54.4-33.6-81.6-72-86.4-97.6-1.6-8-1.6-16 1.6-24l1.6-1.6 22.4-14.4c4.8-3.2 12.8-4.8 20.8-4.8 36.8 0 78.4 43.2 136 140.8 3.2 1.6 6.4 1.6 8 3.2 46.4 14.4 105.6 25.6 184 33.6 46.4-24 102.4-33.6 137.6-33.6 20.8-3.2 33.6 1.6 41.6 9.6z m-19.2 33.6l4.8-4.8c0-4.8-1.6-4.8-4.8-6.4h-1.6c-3.2 0-4.8-1.6-8-1.6-20.8 0-52.8 8-86.4 24 4.8 4.8 8 4.8 11.2 4.8 62.4 0 80-12.8 84.8-16z m-419.2-67.2c-30.4-54.4-56-84.8-76.8-91.2 1.6 17.6 22.4 48 56 76.8 3.2 3.2 11.2 8 20.8 14.4zM478.4 544c-11.2 41.6-11.2 75.2-3.2 94.4 1.6 1.6 1.6 4.8 3.2 4.8l6.4-1.6c8-11.2 8-24 4.8-49.6l-1.6-8c-3.2-9.6-4.8-22.4-8-36.8l-1.6-3.2z"  horiz-adv-x="1024" />

    
    <glyph glyph-name="Text" unicode="&#59066;" d="M0 896h1024v-1024H0V896z m467.2-776c0-4.8 3.2-8 8-8h65.6c4.8 0 8 3.2 8 8V576H688c4.8 0 8 3.2 8 8V640c0 4.8-3.2 8-8 8H329.6c-4.8 0-8-3.2-8-8v-56c0-4.8 3.2-8 8-8h137.6v-456z"  horiz-adv-x="1024" />

    
    <glyph glyph-name="zip" unicode="&#59068;" d="M520 288H416v-104h104V80H624v104h-104V288zM0 896h1024v-1024H0V896z m624-416v104h-104V688H416v-104h104V480H416v-104h104V272H624v104h-104V480H624z"  horiz-adv-x="1024" />

    
    <glyph glyph-name="PowerPoint" unicode="&#59072;" d="M0 896h1024v-1024H0V896z m400-316.8h118.4c24 0 43.2-4.8 57.6-16 24-14.4 35.2-38.4 35.2-72 0-20.8-8-41.6-22.4-59.2s-36.8-27.2-67.2-27.2H400V579.2zM320 128c0-4.8 3.2-8 8-8h64c4.8 0 8 3.2 8 8V329.6h123.2c54.4 0 96 17.6 124.8 51.2 28.8 35.2 43.2 70.4 43.2 108.8 0 28.8-4.8 54.4-16 76.8s-24 38.4-40 51.2c-20.8 16-41.6 25.6-60.8 30.4-19.2 4.8-38.4 6.4-60.8 6.4H328c-4.8 0-8-3.2-8-8V128z"  horiz-adv-x="1024" />

    
    <glyph glyph-name="guanbi2" unicode="&#59053;" d="M567.715625 384l174.7265625 174.7265625-55.715625 55.715625L512 439.715625 337.2734375 614.4421875l-55.715625-55.715625L456.284375 384l-174.234375-174.234375 55.715625-55.715625 174.234375 174.234375 174.234375-174.234375 55.715625 55.715625-174.234375 174.234375zM512-120C233.61875-120 8 105.61874999999998 8 384S233.61875 888 512 888s504-225.61875 504-504-225.61875-504-504-504z"  horiz-adv-x="1024" />

    
    <glyph glyph-name="tianjia1" unicode="&#59122;" d="M512-54.04399999999998c241.926 0 438.044 196.118 438.044 438.044S753.926 822.044 512 822.044 73.956 625.9259999999999 73.956 384 270.074-54.04399999999998 512-54.04399999999998z m0-68.267C232.372-122.31100000000004 5.689 104.37199999999996 5.689 384S232.372 890.311 512 890.311 1018.311 663.6279999999999 1018.311 384 791.628-122.31100000000004 512-122.31100000000004zM472.178 635.4490000000001h79.644v-503.854h-79.644zM763.927 423.344V343.70000000000005H260.073v79.644z"  horiz-adv-x="1024" />

    
    <glyph glyph-name="tianjia" unicode="&#58961;" d="M417.241325 896l189.561931 0 0-1024-189.561931 0 0 1024ZM0 478.780966l1024.022291 0 0-189.561931-1024.022291 0 0 189.561931Z"  horiz-adv-x="1025" />

    
    <glyph glyph-name="tianjiarenyuan" unicode="&#59002;" d="M668.992 360.256H535.744v-133.248a21.12 21.12 0 0 0-21.12-21.12H509.44a21.12 21.12 0 0 0-21.12 21.12V360.32000000000005H355.008a21.12 21.12 0 0 0-21.12 21.12V386.56a21.12 21.12 0 0 0 21.12 21.12H488.32V540.992a21.12 21.12 0 0 0 21.12 21.12h5.248a21.12 21.12 0 0 0 21.12-21.12V407.68h133.248a21.12 21.12 0 0 0 21.12-21.12v-5.248a21.12 21.12 0 0 0-21.12-21.12zM195.84 873.728A173.632 173.632 0 0 1 22.336 700.16v-632.192a173.632 173.632 0 0 1 173.632-173.632h632.192a173.632 173.632 0 0 1 173.632 173.632V700.096A173.632 173.632 0 0 1 828.16 873.728H195.904z m0 22.272h632.32A195.84 195.84 0 0 0 1024 700.16v-632.32A195.84 195.84 0 0 0 828.16-128H195.84A195.84 195.84 0 0 0 0 67.84000000000003V700.16A195.84 195.84 0 0 0 195.84 896z"  horiz-adv-x="1024" />

    
    <glyph glyph-name="shenpiliucheng" unicode="&#58917;" d="M38 384c0-36.451 29.549-66 66-66s66 29.549 66 66c0 36.451-29.549 66-66 66-36.451 0-66-29.549-66-66zM308 384c0-36.451 29.549-66 66-66s66 29.549 66 66c0 36.451-29.549 66-66 66-36.451 0-66-29.549-66-66zM584 384c0-36.451 29.549-66 66-66s66 29.549 66 66c0 0 0 0 0 0 0 36.451-29.549 66-66 66-36.451 0-66-29.549-66-66zM980 402l-168 174c-6 6-12 12-18 12s-18 0-24-6c-12-12-12-30 0-42l144-156-144-150c-6-6-6-12-6-24 0-6 6-18 12-24 6-6 12-6 18-6 0 0 0 0 0 0 6 0 18 6 24 12l162 174c12 6 12 24 0 36z"  horiz-adv-x="1024" />

    
    <glyph glyph-name="shenpi_woshenpide" unicode="&#59185;" d="M346.667 384L320 704C320 810.039 405.961 896 512 896s192-85.961 192-192l-26.667-320H1024v-256H0V384h346.667zM64 64h896v-128H64z"  horiz-adv-x="1024" />

    
    <glyph glyph-name="gongwenjieshou" unicode="&#59186;" d="M146.285714 566.857143V896h731.428572v-329.142857h146.285714V-128H0V566.857143h146.285714z m87.771429 241.371428v-504.685714h548.571428V808.228571H234.057143zM146.285714 91.42857100000003v-73.142857h731.428572v73.142857H146.285714z m365.714286 373.028572l-87.771429-51.2 14.628572 102.4-73.142857 73.142857L468.114286 603.4285709999999 512 691.2 555.885714 603.4285709999999l102.4-14.628571-73.142857-73.142857 14.628572-102.4L512 464.457143z"  horiz-adv-x="1024" />

    
    <glyph glyph-name="you" unicode="&#59049;" d="M718.637 384.579L310-24.059999999999945l56.569-56.568L831.647 384.45l-0.127 0.128 0.127 0.127L368.353 848l-56.569-56.569L718.637 384.58z"  horiz-adv-x="1024" />

    
    <glyph glyph-name="zuo" unicode="&#59051;" d="M304.5 384.069L713.137-24.57000000000005l-56.568-56.568L191.49 383.94000000000005l0.127 0.128-0.127 0.127L654.784 847.49l56.569-56.569L304.5 384.07z"  horiz-adv-x="1024" />

    


  </font>
</defs>
</svg>
